# xmcd CD database file
#
# Track frame offsets:
#	150
#	4101
#	22686
#	40694
#	60329
#	78560
#	94357
#	96988
#	116050
#	135154
#	153450
#	171998
#	197406
#	199398
#	221177
#
# Disc length: 3317 seconds
#
# Revision: 0
# Processed by: cddbd v1.5.2PL0 Copyright (c) Steve Scherf et al.
# Submitted via: CDex 1.51
#
DISCID=c40cf30f
DTITLE=Candy Dulfer - Crazy
DYEAR=2011
DGENRE=Jazz
TTITLE0=Stop All That Noise
TTITLE1=Crazy
TTITLE2=Hey Now
TTITLE3=Flame
TTITLE4=Good Music
TTITLE5=Complic8ed Lives
TTITLE6=Calling Next Door
TTITLE7=Electric Blue
TTITLE8=In Or Out
TTITLE9=I Do
TTITLE10=Rocket, Rocket
TTITLE11=No End
TTITLE12=Open Up
TTITLE13=Please Don't Stop
TTITLE14=Too Close
EXTD=YEAR: 2011
EXTT0=
EXTT1=
EXTT2=
EXTT3=
EXTT4=
EXTT5=
EXTT6=
EXTT7=
EXTT8=
EXTT9=
EXTT10=
EXTT11=
EXTT12=
EXTT13=
EXTT14=
PLAYORDER=
